solid OpenSCAD_Model
  facet normal 0 0 1
    outer loop
      vertex 40 55 30
      vertex 0 51 30
      vertex 40 0 30
    endloop
  endfacet
  facet normal -0 0 1
    outer loop
      vertex -25.5 55 30
      vertex 0 51 30
      vertex 40 55 30
    endloop
  endfacet
  facet normal 0 0 1
    outer loop
      vertex 0 51 30
      vertex -25.5 55 30
      vertex -25.5 51 30
    endloop
  endfacet
  facet normal 0 0 1
    outer loop
      vertex 40 0 30
      vertex 0 51 30
      vertex 0 0 30
    endloop
  endfacet
  facet normal -1 0 0
    outer loop
      vertex 0 51 0
      vertex 0 27.5477 14.9025
      vertex 0 51 30
    endloop
  endfacet
  facet normal -1 0 0
    outer loop
      vertex 0 51 0
      vertex 0 27.4922 14.5167
      vertex 0 27.5477 14.9025
    endloop
  endfacet
  facet normal -1 0 0
    outer loop
      vertex 0 51 0
      vertex 0 27.3647 14.1484
      vertex 0 27.4922 14.5167
    endloop
  endfacet
  facet normal -1 0 0
    outer loop
      vertex 0 51 0
      vertex 0 27.1699 13.8109
      vertex 0 27.3647 14.1484
    endloop
  endfacet
  facet normal -1 0 0
    outer loop
      vertex 0 51 0
      vertex 0 26.9147 13.5163
      vertex 0 27.1699 13.8109
    endloop
  endfacet
  facet normal -1 0 0
    outer loop
      vertex 0 51 0
      vertex 0 26.6083 13.2754
      vertex 0 26.9147 13.5163
    endloop
  endfacet
  facet normal -1 0 0
    outer loop
      vertex 0 51 0
      vertex 0 26.2619 13.0968
      vertex 0 26.6083 13.2754
    endloop
  endfacet
  facet normal -1 0 0
    outer loop
      vertex 0 51 0
      vertex 0 25.888 12.987
      vertex 0 26.2619 13.0968
    endloop
  endfacet
  facet normal -1 0 0
    outer loop
      vertex 0 51 0
      vertex 0 25.5 12.95
      vertex 0 25.888 12.987
    endloop
  endfacet
  facet normal -1 0 0
    outer loop
      vertex 0 0 0
      vertex 0 25.5 12.95
      vertex 0 51 0
    endloop
  endfacet
  facet normal -1 -0 0
    outer loop
      vertex 0 25.5 12.95
      vertex 0 0 0
      vertex 0 25.112 12.987
    endloop
  endfacet
  facet normal -1 -0 0
    outer loop
      vertex 0 23.5078 14.5167
      vertex 0 0 0
      vertex 0 23.4523 14.9025
    endloop
  endfacet
  facet normal -1 -0 0
    outer loop
      vertex 0 23.6353 14.1484
      vertex 0 0 0
      vertex 0 23.5078 14.5167
    endloop
  endfacet
  facet normal -1 -0 0
    outer loop
      vertex 0 23.8301 13.8109
      vertex 0 0 0
      vertex 0 23.6353 14.1484
    endloop
  endfacet
  facet normal -1 -0 0
    outer loop
      vertex 0 24.0853 13.5163
      vertex 0 0 0
      vertex 0 23.8301 13.8109
    endloop
  endfacet
  facet normal -1 -0 0
    outer loop
      vertex 0 24.3917 13.2754
      vertex 0 0 0
      vertex 0 24.0853 13.5163
    endloop
  endfacet
  facet normal -1 -0 0
    outer loop
      vertex 0 24.7381 13.0968
      vertex 0 0 0
      vertex 0 24.3917 13.2754
    endloop
  endfacet
  facet normal -1 -0 0
    outer loop
      vertex 0 25.112 12.987
      vertex 0 0 0
      vertex 0 24.7381 13.0968
    endloop
  endfacet
  facet normal -1 0 0
    outer loop
      vertex 0 27.5291 15.2917
      vertex 0 51 30
      vertex 0 27.5477 14.9025
    endloop
  endfacet
  facet normal -1 0 0
    outer loop
      vertex 0 27.4373 15.6705
      vertex 0 51 30
      vertex 0 27.5291 15.2917
    endloop
  endfacet
  facet normal -1 0 0
    outer loop
      vertex 0 27.2754 16.025
      vertex 0 51 30
      vertex 0 27.4373 15.6705
    endloop
  endfacet
  facet normal -1 0 0
    outer loop
      vertex 0 27.0493 16.3425
      vertex 0 51 30
      vertex 0 27.2754 16.025
    endloop
  endfacet
  facet normal -1 0 0
    outer loop
      vertex 0 26.7672 16.6114
      vertex 0 51 30
      vertex 0 27.0493 16.3425
    endloop
  endfacet
  facet normal -1 0 0
    outer loop
      vertex 0 26.4394 16.8221
      vertex 0 51 30
      vertex 0 26.7672 16.6114
    endloop
  endfacet
  facet normal -1 0 0
    outer loop
      vertex 0 26.0776 16.967
      vertex 0 51 30
      vertex 0 26.4394 16.8221
    endloop
  endfacet
  facet normal -1 0 0
    outer loop
      vertex 0 25.6949 17.0407
      vertex 0 51 30
      vertex 0 26.0776 16.967
    endloop
  endfacet
  facet normal -1 0 0
    outer loop
      vertex 0 25.3051 17.0407
      vertex 0 51 30
      vertex 0 25.6949 17.0407
    endloop
  endfacet
  facet normal -1 0 0
    outer loop
      vertex 0 0 30
      vertex 0 25.3051 17.0407
      vertex 0 24.9224 16.967
    endloop
  endfacet
  facet normal -1 0 0
    outer loop
      vertex 0 0 30
      vertex 0 24.9224 16.967
      vertex 0 24.5606 16.8221
    endloop
  endfacet
  facet normal -1 0 0
    outer loop
      vertex 0 0 30
      vertex 0 23.4523 14.9025
      vertex 0 0 0
    endloop
  endfacet
  facet normal -1 0 0
    outer loop
      vertex 0 23.4523 14.9025
      vertex 0 0 30
      vertex 0 23.4709 15.2917
    endloop
  endfacet
  facet normal -1 0 0
    outer loop
      vertex 0 23.4709 15.2917
      vertex 0 0 30
      vertex 0 23.5627 15.6705
    endloop
  endfacet
  facet normal -1 0 0
    outer loop
      vertex 0 23.5627 15.6705
      vertex 0 0 30
      vertex 0 23.7246 16.025
    endloop
  endfacet
  facet normal -1 0 0
    outer loop
      vertex 0 23.7246 16.025
      vertex 0 0 30
      vertex 0 23.9507 16.3425
    endloop
  endfacet
  facet normal -1 0 0
    outer loop
      vertex 0 25.3051 17.0407
      vertex 0 0 30
      vertex 0 51 30
    endloop
  endfacet
  facet normal -1 0 0
    outer loop
      vertex 0 24.2328 16.6114
      vertex 0 0 30
      vertex 0 24.5606 16.8221
    endloop
  endfacet
  facet normal -1 0 0
    outer loop
      vertex 0 23.9507 16.3425
      vertex 0 0 30
      vertex 0 24.2328 16.6114
    endloop
  endfacet
  facet normal 0 1 -0
    outer loop
      vertex 0 55 0
      vertex -25.5 55 30
      vertex 40 55 30
    endloop
  endfacet
  facet normal 0 1 0
    outer loop
      vertex -25.5 55 30
      vertex 0 55 0
      vertex -25.5 55 0
    endloop
  endfacet
  facet normal 0 -1 0
    outer loop
      vertex 0 0 30
      vertex 0 0 0
      vertex 40 0 30
    endloop
  endfacet
  facet normal 0.599999 0 -0.800001
    outer loop
      vertex 25.9941 25.6991 19.4956
      vertex 40 0 30
      vertex 25.9941 25.3009 19.4956
    endloop
  endfacet
  facet normal 0.600047 4.16982e-05 -0.799965
    outer loop
      vertex 40 0 30
      vertex 25.9472 24.9044 19.4604
      vertex 25.9941 25.3009 19.4956
    endloop
  endfacet
  facet normal 0.600081 7.17532e-05 -0.799939
    outer loop
      vertex 40 0 30
      vertex 25.8538 24.5125 19.3903
      vertex 25.9472 24.9044 19.4604
    endloop
  endfacet
  facet normal 0.599895 -9.65658e-05 -0.800079
    outer loop
      vertex 40 0 30
      vertex 25.7145 24.1284 19.2859
      vertex 25.8538 24.5125 19.3903
    endloop
  endfacet
  facet normal 0.6 3.76516e-07 -0.8
    outer loop
      vertex 40 0 30
      vertex 25.5305 23.755 19.1479
      vertex 25.7145 24.1284 19.2859
    endloop
  endfacet
  facet normal 0.600028 2.77143e-05 -0.799979
    outer loop
      vertex 40 0 30
      vertex 25.3032 23.3952 18.9774
      vertex 25.5305 23.755 19.1479
    endloop
  endfacet
  facet normal 0.6 0 -0.8
    outer loop
      vertex 40 0 30
      vertex 25.0344 23.0519 18.7758
      vertex 25.3032 23.3952 18.9774
    endloop
  endfacet
  facet normal 0.599951 -5.00756e-05 -0.800037
    outer loop
      vertex 40 0 30
      vertex 24.7262 22.7278 18.5447
      vertex 25.0344 23.0519 18.7758
    endloop
  endfacet
  facet normal 0.600069 7.46305e-05 -0.799948
    outer loop
      vertex 40 0 30
      vertex 24.3811 22.4253 18.2858
      vertex 24.7262 22.7278 18.5447
    endloop
  endfacet
  facet normal 0.599978 -2.48869e-05 -0.800017
    outer loop
      vertex 40 0 30
      vertex 24.0016 22.147 18.0012
      vertex 24.3811 22.4253 18.2858
    endloop
  endfacet
  facet normal 0.6 1.73155e-15 -0.8
    outer loop
      vertex 40 0 30
      vertex 23.5908 21.8949 17.6931
      vertex 24.0016 22.147 18.0012
    endloop
  endfacet
  facet normal 0.6 0 -0.8
    outer loop
      vertex 40 0 30
      vertex 23.152 21.6709 17.364
      vertex 23.5908 21.8949 17.6931
    endloop
  endfacet
  facet normal 0.6 0 -0.8
    outer loop
      vertex 40 0 30
      vertex 22.6884 21.477 17.0163
      vertex 23.152 21.6709 17.364
    endloop
  endfacet
  facet normal 0.599958 -5.23785e-05 -0.800031
    outer loop
      vertex 40 0 30
      vertex 22.2038 21.3145 16.6529
      vertex 22.6884 21.477 17.0163
    endloop
  endfacet
  facet normal 0.600042 5.6283e-05 -0.799969
    outer loop
      vertex 40 0 30
      vertex 21.702 21.1848 16.2765
      vertex 22.2038 21.3145 16.6529
    endloop
  endfacet
  facet normal 0.6 0 -0.8
    outer loop
      vertex 40 0 30
      vertex 21.1868 21.0889 15.8901
      vertex 21.702 21.1848 16.2765
    endloop
  endfacet
  facet normal 0.6 0 -0.8
    outer loop
      vertex 40 0 30
      vertex 20.6624 21.0275 15.4968
      vertex 21.1868 21.0889 15.8901
    endloop
  endfacet
  facet normal 0.600023 3.32004e-05 -0.799983
    outer loop
      vertex 40 0 30
      vertex 20.1327 21.0011 15.0995
      vertex 20.6624 21.0275 15.4968
    endloop
  endfacet
  facet normal 0.6 -9.52331e-07 -0.8
    outer loop
      vertex 0 0 0
      vertex 20.1327 21.0011 15.0995
      vertex 40 0 30
    endloop
  endfacet
  facet normal 0.600047 -7.20723e-05 -0.799964
    outer loop
      vertex 20.1327 21.0011 15.0995
      vertex 0 0 0
      vertex 19.6021 21.0099 14.7015
    endloop
  endfacet
  facet normal 0.59991 0.000128618 -0.800068
    outer loop
      vertex 19.6021 21.0099 14.7015
      vertex 0 0 0
      vertex 19.0745 21.0539 14.3059
    endloop
  endfacet
  facet normal 0.600065 -9.10437e-05 -0.799951
    outer loop
      vertex 19.0745 21.0539 14.3059
      vertex 0 0 0
      vertex 18.5542 21.1326 13.9156
    endloop
  endfacet
  facet normal 0.599958 5.61685e-05 -0.800032
    outer loop
      vertex 18.5542 21.1326 13.9156
      vertex 0 0 0
      vertex 18.0452 21.2455 13.5339
    endloop
  endfacet
  facet normal 0.600021 -2.74887e-05 -0.799984
    outer loop
      vertex 18.0452 21.2455 13.5339
      vertex 0 0 0
      vertex 17.5515 21.3918 13.1636
    endloop
  endfacet
  facet normal 0.60002 -2.71474e-05 -0.799985
    outer loop
      vertex 17.5515 21.3918 13.1636
      vertex 0 0 0
      vertex 17.077 21.5701 12.8077
    endloop
  endfacet
  facet normal 0.599937 7.55957e-05 -0.800047
    outer loop
      vertex 17.077 21.5701 12.8077
      vertex 0 0 0
      vertex 16.6253 21.7793 12.469
    endloop
  endfacet
  facet normal 0.600085 -9.99504e-05 -0.799937
    outer loop
      vertex 16.6253 21.7793 12.469
      vertex 0 0 0
      vertex 16.2001 22.0175 12.15
    endloop
  endfacet
  facet normal 0.599913 9.77905e-05 -0.800066
    outer loop
      vertex 16.2001 22.0175 12.15
      vertex 0 0 0
      vertex 15.8045 22.283 11.8534
    endloop
  endfacet
  facet normal 0.599947 4.54048e-05 -0.80004
    outer loop
      vertex 14.0235 25.1023 10.5176
      vertex 0 0 0
      vertex 14 25.5 10.5
    endloop
  endfacet
  facet normal 0.600087 -7.70709e-05 -0.799934
    outer loop
      vertex 14.0937 24.7077 10.5703
      vertex 0 0 0
      vertex 14.0235 25.1023 10.5176
    endloop
  endfacet
  facet normal 0.600038 -3.34673e-05 -0.799971
    outer loop
      vertex 14.2102 24.3193 10.6577
      vertex 0 0 0
      vertex 14.0937 24.7077 10.5703
    endloop
  endfacet
  facet normal 0.599934 6.16639e-05 -0.800049
    outer loop
      vertex 14.372 23.9401 10.779
      vertex 0 0 0
      vertex 14.2102 24.3193 10.6577
    endloop
  endfacet
  facet normal 0.60006 -5.63578e-05 -0.799955
    outer loop
      vertex 14.5778 23.5732 10.9334
      vertex 0 0 0
      vertex 14.372 23.9401 10.779
    endloop
  endfacet
  facet normal 0.599973 2.74507e-05 -0.80002
    outer loop
      vertex 14.8261 23.2213 11.1196
      vertex 0 0 0
      vertex 14.5778 23.5732 10.9334
    endloop
  endfacet
  facet normal 0.6 4.95444e-07 -0.8
    outer loop
      vertex 15.1149 22.8873 11.3362
      vertex 0 0 0
      vertex 14.8261 23.2213 11.1196
    endloop
  endfacet
  facet normal 0.599952 4.99963e-05 -0.800036
    outer loop
      vertex 15.4419 22.5737 11.5814
      vertex 0 0 0
      vertex 15.1149 22.8873 11.3362
    endloop
  endfacet
  facet normal 0.600045 -4.93051e-05 -0.799966
    outer loop
      vertex 15.8045 22.283 11.8534
      vertex 0 0 0
      vertex 15.4419 22.5737 11.5814
    endloop
  endfacet
  facet normal 0.599999 0 -0.800001
    outer loop
      vertex 40 0 30
      vertex 25.9941 25.6991 19.4956
      vertex 40 55 30
    endloop
  endfacet
  facet normal 0.600053 -4.05687e-05 -0.79996
    outer loop
      vertex 25.9472 26.0956 19.4604
      vertex 40 55 30
      vertex 25.9941 25.6991 19.4956
    endloop
  endfacet
  facet normal 0.60009 -6.84863e-05 -0.799932
    outer loop
      vertex 25.8538 26.4875 19.3903
      vertex 40 55 30
      vertex 25.9472 26.0956 19.4604
    endloop
  endfacet
  facet normal 0.599885 9.08458e-05 -0.800087
    outer loop
      vertex 25.7145 26.8716 19.2859
      vertex 40 55 30
      vertex 25.8538 26.4875 19.3903
    endloop
  endfacet
  facet normal 0.6 -3.50148e-07 -0.8
    outer loop
      vertex 25.5305 27.245 19.1479
      vertex 40 55 30
      vertex 25.7145 26.8716 19.2859
    endloop
  endfacet
  facet normal 0.60003 -2.5526e-05 -0.799977
    outer loop
      vertex 25.3032 27.6048 18.9774
      vertex 40 55 30
      vertex 25.5305 27.245 19.1479
    endloop
  endfacet
  facet normal 0.6 0 -0.8
    outer loop
      vertex 25.0344 27.9481 18.7758
      vertex 40 55 30
      vertex 25.3032 27.6048 18.9774
    endloop
  endfacet
  facet normal 0.599947 4.53947e-05 -0.800039
    outer loop
      vertex 24.7262 28.2722 18.5447
      vertex 40 55 30
      vertex 25.0344 27.9481 18.7758
    endloop
  endfacet
  facet normal 0.600074 -6.71962e-05 -0.799945
    outer loop
      vertex 24.3811 28.5746 18.2858
      vertex 40 55 30
      vertex 24.7262 28.2722 18.5447
    endloop
  endfacet
  facet normal 0.599977 2.22564e-05 -0.800017
    outer loop
      vertex 24.0016 28.853 18.0012
      vertex 40 55 30
      vertex 24.3811 28.5746 18.2858
    endloop
  endfacet
  facet normal 0.6 -8.17579e-16 -0.8
    outer loop
      vertex 23.5908 29.1051 17.6931
      vertex 40 55 30
      vertex 24.0016 28.853 18.0012
    endloop
  endfacet
  facet normal 0.6 0 -0.8
    outer loop
      vertex 23.152 29.3291 17.364
      vertex 40 55 30
      vertex 23.5908 29.1051 17.6931
    endloop
  endfacet
  facet normal 0.6 0 -0.8
    outer loop
      vertex 22.6884 29.523 17.0163
      vertex 40 55 30
      vertex 23.152 29.3291 17.364
    endloop
  endfacet
  facet normal 0.599957 4.5681e-05 -0.800032
    outer loop
      vertex 22.2038 29.6855 16.6529
      vertex 40 55 30
      vertex 22.6884 29.523 17.0163
    endloop
  endfacet
  facet normal 0.600043 -4.8757e-05 -0.799968
    outer loop
      vertex 21.702 29.8152 16.2765
      vertex 40 55 30
      vertex 22.2038 29.6855 16.6529
    endloop
  endfacet
  facet normal 0.6 1.83304e-15 -0.8
    outer loop
      vertex 21.1868 29.9111 15.8901
      vertex 40 55 30
      vertex 21.702 29.8152 16.2765
    endloop
  endfacet
  facet normal 0.6 0 -0.8
    outer loop
      vertex 20.6624 29.9725 15.4968
      vertex 40 55 30
      vertex 21.1868 29.9111 15.8901
    endloop
  endfacet
  facet normal 0.600023 -2.80909e-05 -0.799983
    outer loop
      vertex 20.1327 29.9989 15.0995
      vertex 40 55 30
      vertex 20.6624 29.9725 15.4968
    endloop
  endfacet
  facet normal 0.600047 7.20723e-05 -0.799964
    outer loop
      vertex 0 51 0
      vertex 20.1327 29.9989 15.0995
      vertex 19.6021 29.9901 14.7015
    endloop
  endfacet
  facet normal 0.59991 -0.000128618 -0.800068
    outer loop
      vertex 0 51 0
      vertex 19.6021 29.9901 14.7015
      vertex 19.0745 29.9461 14.3059
    endloop
  endfacet
  facet normal 0.600065 9.10437e-05 -0.799951
    outer loop
      vertex 0 51 0
      vertex 19.0745 29.9461 14.3059
      vertex 18.5542 29.8674 13.9156
    endloop
  endfacet
  facet normal 0.599958 -5.61685e-05 -0.800032
    outer loop
      vertex 0 51 0
      vertex 18.5542 29.8674 13.9156
      vertex 18.0452 29.7545 13.5339
    endloop
  endfacet
  facet normal 0.600021 2.74887e-05 -0.799984
    outer loop
      vertex 0 51 0
      vertex 18.0452 29.7545 13.5339
      vertex 17.5515 29.6082 13.1636
    endloop
  endfacet
  facet normal 0.60002 2.71474e-05 -0.799985
    outer loop
      vertex 0 51 0
      vertex 17.5515 29.6082 13.1636
      vertex 17.077 29.4299 12.8077
    endloop
  endfacet
  facet normal 0.599937 -7.55957e-05 -0.800047
    outer loop
      vertex 0 51 0
      vertex 17.077 29.4299 12.8077
      vertex 16.6253 29.2207 12.469
    endloop
  endfacet
  facet normal 0.600085 9.99504e-05 -0.799937
    outer loop
      vertex 0 51 0
      vertex 16.6253 29.2207 12.469
      vertex 16.2001 28.9825 12.15
    endloop
  endfacet
  facet normal 0.599913 -9.77905e-05 -0.800066
    outer loop
      vertex 0 51 0
      vertex 16.2001 28.9825 12.15
      vertex 15.8045 28.717 11.8534
    endloop
  endfacet
  facet normal 0.600045 4.93051e-05 -0.799966
    outer loop
      vertex 0 51 0
      vertex 15.8045 28.717 11.8534
      vertex 15.4419 28.4263 11.5814
    endloop
  endfacet
  facet normal 0.599952 -4.99963e-05 -0.800036
    outer loop
      vertex 0 51 0
      vertex 15.4419 28.4263 11.5814
      vertex 15.1149 28.1127 11.3362
    endloop
  endfacet
  facet normal 0.6 0 -0.8
    outer loop
      vertex 0 51 0
      vertex 14 25.5 10.5
      vertex 0 0 0
    endloop
  endfacet
  facet normal 0.599947 -4.54048e-05 -0.80004
    outer loop
      vertex 14 25.5 10.5
      vertex 0 51 0
      vertex 14.0235 25.8977 10.5176
    endloop
  endfacet
  facet normal 0.600087 7.70709e-05 -0.799934
    outer loop
      vertex 14.0235 25.8977 10.5176
      vertex 0 51 0
      vertex 14.0937 26.2923 10.5703
    endloop
  endfacet
  facet normal 0.600038 3.34673e-05 -0.799971
    outer loop
      vertex 14.0937 26.2923 10.5703
      vertex 0 51 0
      vertex 14.2102 26.6807 10.6577
    endloop
  endfacet
  facet normal 0.599934 -6.16639e-05 -0.800049
    outer loop
      vertex 14.2102 26.6807 10.6577
      vertex 0 51 0
      vertex 14.372 27.0599 10.779
    endloop
  endfacet
  facet normal 0.60006 5.63578e-05 -0.799955
    outer loop
      vertex 0 51 0
      vertex 14.5778 27.4268 10.9334
      vertex 14.372 27.0599 10.779
    endloop
  endfacet
  facet normal 0.599973 -2.74507e-05 -0.80002
    outer loop
      vertex 0 51 0
      vertex 14.8261 27.7787 11.1196
      vertex 14.5778 27.4268 10.9334
    endloop
  endfacet
  facet normal 0.6 -4.95444e-07 -0.8
    outer loop
      vertex 0 51 0
      vertex 15.1149 28.1127 11.3362
      vertex 14.8261 27.7787 11.1196
    endloop
  endfacet
  facet normal 0.6 8.69022e-07 -0.8
    outer loop
      vertex 20.1327 29.9989 15.0995
      vertex 0 51 0
      vertex 40 55 30
    endloop
  endfacet
  facet normal 0.6 0 -0.8
    outer loop
      vertex 40 55 30
      vertex 0 51 0
      vertex 0 55 0
    endloop
  endfacet
  facet normal 0 0.98981 0.142391
    outer loop
      vertex 5 23.5078 14.5167
      vertex 0 23.4523 14.9025
      vertex 5 23.4523 14.9025
    endloop
  endfacet
  facet normal 0 0.98981 0.142391
    outer loop
      vertex 0 23.4523 14.9025
      vertex 5 23.5078 14.5167
      vertex 0 23.5078 14.5167
    endloop
  endfacet
  facet normal 0 -0.458264 0.888816
    outer loop
      vertex 0 26.6083 13.2754
      vertex 5 26.2619 13.0968
      vertex 5 26.6083 13.2754
    endloop
  endfacet
  facet normal 0 -0.458264 0.888816
    outer loop
      vertex 5 26.2619 13.0968
      vertex 0 26.6083 13.2754
      vertex 0 26.2619 13.0968
    endloop
  endfacet
  facet normal -0 0.0949302 0.995484
    outer loop
      vertex 0 25.5 12.95
      vertex 5 25.112 12.987
      vertex 5 25.5 12.95
    endloop
  endfacet
  facet normal 0 0.0949302 0.995484
    outer loop
      vertex 5 25.112 12.987
      vertex 0 25.5 12.95
      vertex 0 25.112 12.987
    endloop
  endfacet
  facet normal 0 -0.99886 -0.0477359
    outer loop
      vertex 0 27.5477 14.9025
      vertex 5 27.5291 15.2917
      vertex 0 27.5291 15.2917
    endloop
  endfacet
  facet normal 0 -0.99886 -0.0477359
    outer loop
      vertex 5 27.5291 15.2917
      vertex 0 27.5477 14.9025
      vertex 5 27.5477 14.9025
    endloop
  endfacet
  facet normal 0 -0.0949302 0.995484
    outer loop
      vertex 0 25.888 12.987
      vertex 5 25.5 12.95
      vertex 5 25.888 12.987
    endloop
  endfacet
  facet normal 0 -0.0949302 0.995484
    outer loop
      vertex 5 25.5 12.95
      vertex 0 25.888 12.987
      vertex 0 25.5 12.95
    endloop
  endfacet
  facet normal 0 0.909627 -0.415426
    outer loop
      vertex 5 23.5627 15.6705
      vertex 0 23.7246 16.025
      vertex 5 23.7246 16.025
    endloop
  endfacet
  facet normal 0 0.909627 -0.415426
    outer loop
      vertex 0 23.7246 16.025
      vertex 5 23.5627 15.6705
      vertex 0 23.5627 15.6705
    endloop
  endfacet
  facet normal 0 0.99886 -0.0477359
    outer loop
      vertex 5 23.4523 14.9025
      vertex 0 23.4709 15.2917
      vertex 5 23.4709 15.2917
    endloop
  endfacet
  facet normal 0 0.99886 -0.0477359
    outer loop
      vertex 0 23.4709 15.2917
      vertex 5 23.4523 14.9025
      vertex 0 23.4523 14.9025
    endloop
  endfacet
  facet normal 0 -0.944977 0.327137
    outer loop
      vertex 0 27.3647 14.1484
      vertex 5 27.4922 14.5167
      vertex 0 27.4922 14.5167
    endloop
  endfacet
  facet normal 0 -0.944977 0.327137
    outer loop
      vertex 5 27.4922 14.5167
      vertex 0 27.3647 14.1484
      vertex 5 27.3647 14.1484
    endloop
  endfacet
  facet normal -0 0.281763 0.959484
    outer loop
      vertex 0 25.112 12.987
      vertex 5 24.7381 13.0968
      vertex 5 25.112 12.987
    endloop
  endfacet
  facet normal 0 0.281763 0.959484
    outer loop
      vertex 5 24.7381 13.0968
      vertex 0 25.112 12.987
      vertex 0 24.7381 13.0968
    endloop
  endfacet
  facet normal 0 -0.98981 0.142391
    outer loop
      vertex 0 27.4922 14.5167
      vertex 5 27.5477 14.9025
      vertex 0 27.5477 14.9025
    endloop
  endfacet
  facet normal 0 -0.98981 0.142391
    outer loop
      vertex 5 27.5477 14.9025
      vertex 0 27.4922 14.5167
      vertex 5 27.4922 14.5167
    endloop
  endfacet
  facet normal -0 0.458264 0.888816
    outer loop
      vertex 0 24.7381 13.0968
      vertex 5 24.3917 13.2754
      vertex 5 24.7381 13.0968
    endloop
  endfacet
  facet normal 0 0.458264 0.888816
    outer loop
      vertex 5 24.3917 13.2754
      vertex 0 24.7381 13.0968
      vertex 0 24.3917 13.2754
    endloop
  endfacet
  facet normal 0 0.944977 0.327137
    outer loop
      vertex 5 23.6353 14.1484
      vertex 0 23.5078 14.5167
      vertex 5 23.5078 14.5167
    endloop
  endfacet
  facet normal 0 0.944977 0.327137
    outer loop
      vertex 0 23.5078 14.5167
      vertex 5 23.6353 14.1484
      vertex 0 23.6353 14.1484
    endloop
  endfacet
  facet normal 0 0.189104 -0.981957
    outer loop
      vertex 0 24.9224 16.967
      vertex 5 25.3051 17.0407
      vertex 5 24.9224 16.967
    endloop
  endfacet
  facet normal 0 0.189104 -0.981957
    outer loop
      vertex 5 25.3051 17.0407
      vertex 0 24.9224 16.967
      vertex 0 25.3051 17.0407
    endloop
  endfacet
  facet normal 0 -0.689969 -0.723839
    outer loop
      vertex 0 26.7672 16.6114
      vertex 5 27.0493 16.3425
      vertex 5 26.7672 16.6114
    endloop
  endfacet
  facet normal -0 -0.689969 -0.723839
    outer loop
      vertex 5 27.0493 16.3425
      vertex 0 26.7672 16.6114
      vertex 0 27.0493 16.3425
    endloop
  endfacet
  facet normal 0 -0.618071 0.786122
    outer loop
      vertex 0 26.9147 13.5163
      vertex 5 26.6083 13.2754
      vertex 5 26.9147 13.5163
    endloop
  endfacet
  facet normal 0 -0.618071 0.786122
    outer loop
      vertex 5 26.6083 13.2754
      vertex 0 26.9147 13.5163
      vertex 0 26.6083 13.2754
    endloop
  endfacet
  facet normal 0 -0.909627 -0.415426
    outer loop
      vertex 0 27.4373 15.6705
      vertex 5 27.2754 16.025
      vertex 0 27.2754 16.025
    endloop
  endfacet
  facet normal 0 -0.909627 -0.415426
    outer loop
      vertex 5 27.2754 16.025
      vertex 0 27.4373 15.6705
      vertex 5 27.4373 15.6705
    endloop
  endfacet
  facet normal 0 -0.971868 -0.235527
    outer loop
      vertex 0 27.5291 15.2917
      vertex 5 27.4373 15.6705
      vertex 0 27.4373 15.6705
    endloop
  endfacet
  facet normal 0 -0.971868 -0.235527
    outer loop
      vertex 5 27.4373 15.6705
      vertex 0 27.5291 15.2917
      vertex 5 27.5291 15.2917
    endloop
  endfacet
  facet normal 0 0.814565 -0.580073
    outer loop
      vertex 5 23.7246 16.025
      vertex 0 23.9507 16.3425
      vertex 5 23.9507 16.3425
    endloop
  endfacet
  facet normal 0 0.814565 -0.580073
    outer loop
      vertex 0 23.9507 16.3425
      vertex 5 23.7246 16.025
      vertex 0 23.7246 16.025
    endloop
  endfacet
  facet normal 0 -0.281763 0.959484
    outer loop
      vertex 0 26.2619 13.0968
      vertex 5 25.888 12.987
      vertex 5 26.2619 13.0968
    endloop
  endfacet
  facet normal 0 -0.281763 0.959484
    outer loop
      vertex 5 25.888 12.987
      vertex 0 26.2619 13.0968
      vertex 0 25.888 12.987
    endloop
  endfacet
  facet normal 0 -0.814565 -0.580073
    outer loop
      vertex 0 27.2754 16.025
      vertex 5 27.0493 16.3425
      vertex 0 27.0493 16.3425
    endloop
  endfacet
  facet normal 0 -0.814565 -0.580073
    outer loop
      vertex 5 27.0493 16.3425
      vertex 0 27.2754 16.025
      vertex 5 27.2754 16.025
    endloop
  endfacet
  facet normal 0 0.755841 0.654755
    outer loop
      vertex 5 24.0853 13.5163
      vertex 0 23.8301 13.8109
      vertex 5 23.8301 13.8109
    endloop
  endfacet
  facet normal 0 0.755841 0.654755
    outer loop
      vertex 0 23.8301 13.8109
      vertex 5 24.0853 13.5163
      vertex 0 24.0853 13.5163
    endloop
  endfacet
  facet normal 0 0.689969 -0.723839
    outer loop
      vertex 0 23.9507 16.3425
      vertex 5 24.2328 16.6114
      vertex 5 23.9507 16.3425
    endloop
  endfacet
  facet normal 0 0.689969 -0.723839
    outer loop
      vertex 5 24.2328 16.6114
      vertex 0 23.9507 16.3425
      vertex 0 24.2328 16.6114
    endloop
  endfacet
  facet normal 0 -0.755841 0.654755
    outer loop
      vertex 0 26.9147 13.5163
      vertex 5 27.1699 13.8109
      vertex 0 27.1699 13.8109
    endloop
  endfacet
  facet normal 0 -0.755841 0.654755
    outer loop
      vertex 5 27.1699 13.8109
      vertex 0 26.9147 13.5163
      vertex 5 26.9147 13.5163
    endloop
  endfacet
  facet normal 0 0.866087 0.499893
    outer loop
      vertex 5 23.8301 13.8109
      vertex 0 23.6353 14.1484
      vertex 5 23.6353 14.1484
    endloop
  endfacet
  facet normal 0 0.866087 0.499893
    outer loop
      vertex 0 23.6353 14.1484
      vertex 5 23.8301 13.8109
      vertex 0 23.8301 13.8109
    endloop
  endfacet
  facet normal 0 -0.189104 -0.981957
    outer loop
      vertex 0 25.6949 17.0407
      vertex 5 26.0776 16.967
      vertex 5 25.6949 17.0407
    endloop
  endfacet
  facet normal -0 -0.189104 -0.981957
    outer loop
      vertex 5 26.0776 16.967
      vertex 0 25.6949 17.0407
      vertex 0 26.0776 16.967
    endloop
  endfacet
  facet normal 0 -0.866087 0.499893
    outer loop
      vertex 0 27.1699 13.8109
      vertex 5 27.3647 14.1484
      vertex 0 27.3647 14.1484
    endloop
  endfacet
  facet normal 0 -0.866087 0.499893
    outer loop
      vertex 5 27.3647 14.1484
      vertex 0 27.1699 13.8109
      vertex 5 27.1699 13.8109
    endloop
  endfacet
  facet normal -0 0.618071 0.786122
    outer loop
      vertex 0 24.3917 13.2754
      vertex 5 24.0853 13.5163
      vertex 5 24.3917 13.2754
    endloop
  endfacet
  facet normal 0 0.618071 0.786122
    outer loop
      vertex 5 24.0853 13.5163
      vertex 0 24.3917 13.2754
      vertex 0 24.0853 13.5163
    endloop
  endfacet
  facet normal 0 0.371789 -0.928317
    outer loop
      vertex 0 24.5606 16.8221
      vertex 5 24.9224 16.967
      vertex 5 24.5606 16.8221
    endloop
  endfacet
  facet normal 0 0.371789 -0.928317
    outer loop
      vertex 5 24.9224 16.967
      vertex 0 24.5606 16.8221
      vertex 0 24.9224 16.967
    endloop
  endfacet
  facet normal 0 -0.540706 -0.841212
    outer loop
      vertex 0 26.4394 16.8221
      vertex 5 26.7672 16.6114
      vertex 5 26.4394 16.8221
    endloop
  endfacet
  facet normal -0 -0.540706 -0.841212
    outer loop
      vertex 5 26.7672 16.6114
      vertex 0 26.4394 16.8221
      vertex 0 26.7672 16.6114
    endloop
  endfacet
  facet normal 0 0.540706 -0.841212
    outer loop
      vertex 0 24.2328 16.6114
      vertex 5 24.5606 16.8221
      vertex 5 24.2328 16.6114
    endloop
  endfacet
  facet normal 0 0.540706 -0.841212
    outer loop
      vertex 5 24.5606 16.8221
      vertex 0 24.2328 16.6114
      vertex 0 24.5606 16.8221
    endloop
  endfacet
  facet normal 0 0.971868 -0.235527
    outer loop
      vertex 5 23.4709 15.2917
      vertex 0 23.5627 15.6705
      vertex 5 23.5627 15.6705
    endloop
  endfacet
  facet normal 0 0.971868 -0.235527
    outer loop
      vertex 0 23.5627 15.6705
      vertex 5 23.4709 15.2917
      vertex 0 23.4709 15.2917
    endloop
  endfacet
  facet normal 0 -0.371789 -0.928317
    outer loop
      vertex 0 26.0776 16.967
      vertex 5 26.4394 16.8221
      vertex 5 26.0776 16.967
    endloop
  endfacet
  facet normal -0 -0.371789 -0.928317
    outer loop
      vertex 5 26.4394 16.8221
      vertex 0 26.0776 16.967
      vertex 0 26.4394 16.8221
    endloop
  endfacet
  facet normal 0 0 -1
    outer loop
      vertex 0 25.3051 17.0407
      vertex 5 25.6949 17.0407
      vertex 5 25.3051 17.0407
    endloop
  endfacet
  facet normal -0 0 -1
    outer loop
      vertex 5 25.6949 17.0407
      vertex 0 25.3051 17.0407
      vertex 0 25.6949 17.0407
    endloop
  endfacet
  facet normal -0 -0.9978 -0.0663023
    outer loop
      vertex 20.1327 29.9989 15.0995
      vertex 5 29.9725 15.4968
      vertex 5 29.9989 15.0995
    endloop
  endfacet
  facet normal 0 -0.9978 -0.0663023
    outer loop
      vertex 5 29.9725 15.4968
      vertex 20.1327 29.9989 15.0995
      vertex 20.6624 29.9725 15.4968
    endloop
  endfacet
  facet normal 0 -0.219536 0.975604
    outer loop
      vertex 5 26.6807 10.6577
      vertex 14.0937 26.2923 10.5703
      vertex 14.2102 26.6807 10.6577
    endloop
  endfacet
  facet normal 0 -0.219536 0.975604
    outer loop
      vertex 14.0937 26.2923 10.5703
      vertex 5 26.6807 10.6577
      vertex 5 26.2923 10.5703
    endloop
  endfacet
  facet normal 0 0.0442112 0.999022
    outer loop
      vertex 5 25.1023 10.5176
      vertex 14 25.5 10.5
      vertex 5 25.5 10.5
    endloop
  endfacet
  facet normal 0 0.0442112 0.999022
    outer loop
      vertex 14 25.5 10.5
      vertex 5 25.1023 10.5176
      vertex 14.0235 25.1023 10.5176
    endloop
  endfacet
  facet normal 0 -0.850795 0.525498
    outer loop
      vertex 16.6253 29.2207 12.469
      vertex 5 29.4299 12.8077
      vertex 5 29.2207 12.469
    endloop
  endfacet
  facet normal 0 -0.850795 0.525498
    outer loop
      vertex 5 29.4299 12.8077
      vertex 16.6253 29.2207 12.469
      vertex 17.077 29.4299 12.8077
    endloop
  endfacet
  facet normal -0 -0.873374 -0.48705
    outer loop
      vertex 22.6884 29.523 17.0163
      vertex 5 29.3291 17.364
      vertex 5 29.523 17.0163
    endloop
  endfacet
  facet normal 0 -0.873374 -0.48705
    outer loop
      vertex 5 29.3291 17.364
      vertex 22.6884 29.523 17.0163
      vertex 23.152 29.3291 17.364
    endloop
  endfacet
  facet normal 0 -0.0442112 0.999022
    outer loop
      vertex 5 25.8977 10.5176
      vertex 14 25.5 10.5
      vertex 14.0235 25.8977 10.5176
    endloop
  endfacet
  facet normal 0 -0.0442112 0.999022
    outer loop
      vertex 14 25.5 10.5
      vertex 5 25.8977 10.5176
      vertex 5 25.5 10.5
    endloop
  endfacet
  facet normal 0 0.958932 0.283635
    outer loop
      vertex 18.0452 21.2455 13.5339
      vertex 5 21.1326 13.9156
      vertex 18.5542 21.1326 13.9156
    endloop
  endfacet
  facet normal 0 0.958932 0.283635
    outer loop
      vertex 5 21.1326 13.9156
      vertex 18.0452 21.2455 13.5339
      vertex 5 21.2455 13.5339
    endloop
  endfacet
  facet normal -0 -0.988032 -0.154247
    outer loop
      vertex 20.6624 29.9725 15.4968
      vertex 5 29.9111 15.8901
      vertex 5 29.9725 15.4968
    endloop
  endfacet
  facet normal 0 -0.988032 -0.154247
    outer loop
      vertex 5 29.9111 15.8901
      vertex 20.6624 29.9725 15.4968
      vertex 21.1868 29.9111 15.8901
    endloop
  endfacet
  facet normal -0 -0.970555 -0.24088
    outer loop
      vertex 21.1868 29.9111 15.8901
      vertex 5 29.8152 16.2765
      vertex 5 29.9111 15.8901
    endloop
  endfacet
  facet normal 0 -0.970555 -0.24088
    outer loop
      vertex 5 29.8152 16.2765
      vertex 21.1868 29.9111 15.8901
      vertex 21.702 29.8152 16.2765
    endloop
  endfacet
  facet normal 0 0.714976 -0.699149
    outer loop
      vertex 24.0016 22.147 18.0012
      vertex 5 22.4253 18.2858
      vertex 24.3811 22.4253 18.2858
    endloop
  endfacet
  facet normal 0 0.714976 -0.699149
    outer loop
      vertex 5 22.4253 18.2858
      vertex 24.0016 22.147 18.0012
      vertex 5 22.147 18.0012
    endloop
  endfacet
  facet normal 0 0.132378 0.991199
    outer loop
      vertex 5 24.7077 10.5703
      vertex 14.0235 25.1023 10.5176
      vertex 5 25.1023 10.5176
    endloop
  endfacet
  facet normal 0 0.132378 0.991199
    outer loop
      vertex 14.0235 25.1023 10.5176
      vertex 5 24.7077 10.5703
      vertex 14.0937 24.7077 10.5703
    endloop
  endfacet
  facet normal 0 -0.544105 0.839017
    outer loop
      vertex 5 28.1127 11.3362
      vertex 14.8261 27.7787 11.1196
      vertex 15.1149 28.1127 11.3362
    endloop
  endfacet
  facet normal 0 -0.544105 0.839017
    outer loop
      vertex 14.8261 27.7787 11.1196
      vertex 5 28.1127 11.3362
      vertex 5 27.7787 11.1196
    endloop
  endfacet
  facet normal 0 -0.98027 0.197661
    outer loop
      vertex 18.5542 29.8674 13.9156
      vertex 5 29.9461 14.3059
      vertex 5 29.8674 13.9156
    endloop
  endfacet
  facet normal 0 -0.98027 0.197661
    outer loop
      vertex 5 29.9461 14.3059
      vertex 18.5542 29.8674 13.9156
      vertex 19.0745 29.9461 14.3059
    endloop
  endfacet
  facet normal 0 -0.088429 -0.996082
    outer loop
      vertex 5 25.6991 19.4956
      vertex 25.9472 26.0956 19.4604
      vertex 25.9941 25.6991 19.4956
    endloop
  endfacet
  facet normal -0 -0.088429 -0.996082
    outer loop
      vertex 25.9472 26.0956 19.4604
      vertex 5 25.6991 19.4956
      vertex 5 26.0956 19.4604
    endloop
  endfacet
  facet normal 0 0.98027 0.197661
    outer loop
      vertex 18.5542 21.1326 13.9156
      vertex 5 21.0539 14.3059
      vertex 19.0745 21.0539 14.3059
    endloop
  endfacet
  facet normal 0 0.98027 0.197661
    outer loop
      vertex 5 21.0539 14.3059
      vertex 18.5542 21.1326 13.9156
      vertex 5 21.1326 13.9156
    endloop
  endfacet
  facet normal 0 0.262288 -0.96499
    outer loop
      vertex 5 24.5125 19.3903
      vertex 25.7145 24.1284 19.2859
      vertex 5 24.1284 19.2859
    endloop
  endfacet
  facet normal 0 0.262288 -0.96499
    outer loop
      vertex 25.7145 24.1284 19.2859
      vertex 5 24.5125 19.3903
      vertex 25.8538 24.5125 19.3903
    endloop
  endfacet
  facet normal 0 0.683231 0.730203
    outer loop
      vertex 5 22.283 11.8534
      vertex 15.4419 22.5737 11.5814
      vertex 5 22.5737 11.5814
    endloop
  endfacet
  facet normal 0 0.683231 0.730203
    outer loop
      vertex 15.4419 22.5737 11.5814
      vertex 5 22.283 11.8534
      vertex 15.8045 22.283 11.8534
    endloop
  endfacet
  facet normal 0 0.544105 0.839017
    outer loop
      vertex 5 22.8873 11.3362
      vertex 14.8261 23.2213 11.1196
      vertex 5 23.2213 11.1196
    endloop
  endfacet
  facet normal 0 0.544105 0.839017
    outer loop
      vertex 14.8261 23.2213 11.1196
      vertex 5 22.8873 11.3362
      vertex 15.1149 22.8873 11.3362
    endloop
  endfacet
  facet normal 0 0.176078 -0.984376
    outer loop
      vertex 5 24.9044 19.4604
      vertex 25.8538 24.5125 19.3903
      vertex 5 24.5125 19.3903
    endloop
  endfacet
  facet normal 0 0.176078 -0.984376
    outer loop
      vertex 25.8538 24.5125 19.3903
      vertex 5 24.9044 19.4604
      vertex 25.9472 24.9044 19.4604
    endloop
  endfacet
  facet normal 0 -0.387877 0.921711
    outer loop
      vertex 5 27.4268 10.9334
      vertex 14.372 27.0599 10.779
      vertex 14.5778 27.4268 10.9334
    endloop
  endfacet
  facet normal 0 -0.387877 0.921711
    outer loop
      vertex 14.372 27.0599 10.779
      vertex 5 27.4268 10.9334
      vertex 5 27.0599 10.779
    endloop
  endfacet
  facet normal 0 -0.428227 -0.903671
    outer loop
      vertex 5 27.245 19.1479
      vertex 25.3032 27.6048 18.9774
      vertex 25.5305 27.245 19.1479
    endloop
  endfacet
  facet normal -0 -0.428227 -0.903671
    outer loop
      vertex 25.3032 27.6048 18.9774
      vertex 5 27.245 19.1479
      vertex 5 27.6048 18.9774
    endloop
  endfacet
  facet normal 0 0.773935 -0.633265
    outer loop
      vertex 23.5908 21.8949 17.6931
      vertex 5 22.147 18.0012
      vertex 24.0016 22.147 18.0012
    endloop
  endfacet
  facet normal 0 0.773935 -0.633265
    outer loop
      vertex 5 22.147 18.0012
      vertex 23.5908 21.8949 17.6931
      vertex 5 21.8949 17.6931
    endloop
  endfacet
  facet normal 0 0.304675 0.952456
    outer loop
      vertex 5 23.9401 10.779
      vertex 14.2102 24.3193 10.6577
      vertex 5 24.3193 10.6577
    endloop
  endfacet
  facet normal 0 0.304675 0.952456
    outer loop
      vertex 14.2102 24.3193 10.6577
      vertex 5 23.9401 10.779
      vertex 14.372 23.9401 10.779
    endloop
  endfacet
  facet normal 0 0.850795 0.525498
    outer loop
      vertex 16.6253 21.7793 12.469
      vertex 5 21.5701 12.8077
      vertex 17.077 21.5701 12.8077
    endloop
  endfacet
  facet normal 0 0.850795 0.525498
    outer loop
      vertex 5 21.5701 12.8077
      vertex 16.6253 21.7793 12.469
      vertex 5 21.7793 12.469
    endloop
  endfacet
  facet normal 0 0.930045 0.367447
    outer loop
      vertex 17.5515 21.3918 13.1636
      vertex 5 21.2455 13.5339
      vertex 18.0452 21.2455 13.5339
    endloop
  endfacet
  facet normal 0 0.930045 0.367447
    outer loop
      vertex 5 21.2455 13.5339
      vertex 17.5515 21.3918 13.1636
      vertex 5 21.3918 13.1636
    endloop
  endfacet
  facet normal 0 -0.894075 0.447917
    outer loop
      vertex 17.077 29.4299 12.8077
      vertex 5 29.6082 13.1636
      vertex 5 29.4299 12.8077
    endloop
  endfacet
  facet normal 0 -0.894075 0.447917
    outer loop
      vertex 5 29.6082 13.1636
      vertex 17.077 29.4299 12.8077
      vertex 17.5515 29.6082 13.1636
    endloop
  endfacet
  facet normal 0 -0.132378 0.991199
    outer loop
      vertex 5 26.2923 10.5703
      vertex 14.0235 25.8977 10.5176
      vertex 14.0937 26.2923 10.5703
    endloop
  endfacet
  facet normal 0 -0.132378 0.991199
    outer loop
      vertex 14.0235 25.8977 10.5176
      vertex 5 26.2923 10.5703
      vertex 5 25.8977 10.5176
    endloop
  endfacet
  facet normal 0 -0.176078 -0.984376
    outer loop
      vertex 5 26.0956 19.4604
      vertex 25.8538 26.4875 19.3903
      vertex 25.9472 26.0956 19.4604
    endloop
  endfacet
  facet normal -0 -0.176078 -0.984376
    outer loop
      vertex 25.8538 26.4875 19.3903
      vertex 5 26.0956 19.4604
      vertex 5 26.4875 19.3903
    endloop
  endfacet
  facet normal 0 0.993871 0.110542
    outer loop
      vertex 19.0745 21.0539 14.3059
      vertex 5 21.0099 14.7015
      vertex 19.6021 21.0099 14.7015
    endloop
  endfacet
  facet normal 0 0.993871 0.110542
    outer loop
      vertex 5 21.0099 14.7015
      vertex 19.0745 21.0539 14.3059
      vertex 5 21.0539 14.3059
    endloop
  endfacet
  facet normal 0 -0.74509 0.666964
    outer loop
      vertex 15.8045 28.717 11.8534
      vertex 5 28.9825 12.15
      vertex 5 28.717 11.8534
    endloop
  endfacet
  facet normal 0 -0.74509 0.666964
    outer loop
      vertex 5 28.9825 12.15
      vertex 15.8045 28.717 11.8534
      vertex 16.2001 28.9825 12.15
    endloop
  endfacet
  facet normal 0 0.873374 -0.48705
    outer loop
      vertex 22.6884 21.477 17.0163
      vertex 5 21.6709 17.364
      vertex 23.152 21.6709 17.364
    endloop
  endfacet
  facet normal 0 0.873374 -0.48705
    outer loop
      vertex 5 21.6709 17.364
      vertex 22.6884 21.477 17.0163
      vertex 5 21.477 17.0163
    endloop
  endfacet
  facet normal 0 0.988032 -0.154247
    outer loop
      vertex 20.6624 21.0275 15.4968
      vertex 5 21.0889 15.8901
      vertex 21.1868 21.0889 15.8901
    endloop
  endfacet
  facet normal 0 0.988032 -0.154247
    outer loop
      vertex 5 21.0889 15.8901
      vertex 20.6624 21.0275 15.4968
      vertex 5 21.0275 15.4968
    endloop
  endfacet
  facet normal 0 -0.34666 -0.937991
    outer loop
      vertex 5 26.8716 19.2859
      vertex 25.5305 27.245 19.1479
      vertex 25.7145 26.8716 19.2859
    endloop
  endfacet
  facet normal -0 -0.34666 -0.937991
    outer loop
      vertex 25.5305 27.245 19.1479
      vertex 5 26.8716 19.2859
      vertex 5 27.245 19.1479
    endloop
  endfacet
  facet normal 0 0.580573 -0.814208
    outer loop
      vertex 5 23.0519 18.7758
      vertex 24.7262 22.7278 18.5447
      vertex 5 22.7278 18.5447
    endloop
  endfacet
  facet normal 0 0.580573 -0.814208
    outer loop
      vertex 24.7262 22.7278 18.5447
      vertex 5 23.0519 18.7758
      vertex 25.0344 23.0519 18.7758
    endloop
  endfacet
  facet normal -0 -0.945445 -0.325782
    outer loop
      vertex 21.702 29.8152 16.2765
      vertex 5 29.6855 16.6529
      vertex 5 29.8152 16.2765
    endloop
  endfacet
  facet normal 0 -0.945445 -0.325782
    outer loop
      vertex 5 29.6855 16.6529
      vertex 21.702 29.8152 16.2765
      vertex 22.2038 29.6855 16.6529
    endloop
  endfacet
  facet normal 0 0.34666 -0.937991
    outer loop
      vertex 5 24.1284 19.2859
      vertex 25.5305 23.755 19.1479
      vertex 5 23.755 19.1479
    endloop
  endfacet
  facet normal 0 0.34666 -0.937991
    outer loop
      vertex 25.5305 23.755 19.1479
      vertex 5 24.1284 19.2859
      vertex 25.7145 24.1284 19.2859
    endloop
  endfacet
  facet normal 0 0.801264 0.598311
    outer loop
      vertex 16.2001 22.0175 12.15
      vertex 5 21.7793 12.469
      vertex 16.6253 21.7793 12.469
    endloop
  endfacet
  facet normal 0 0.801264 0.598311
    outer loop
      vertex 5 21.7793 12.469
      vertex 16.2001 22.0175 12.15
      vertex 5 22.0175 12.15
    endloop
  endfacet
  facet normal 0 0.894075 0.447917
    outer loop
      vertex 17.077 21.5701 12.8077
      vertex 5 21.3918 13.1636
      vertex 17.5515 21.3918 13.1636
    endloop
  endfacet
  facet normal 0 0.894075 0.447917
    outer loop
      vertex 5 21.3918 13.1636
      vertex 17.077 21.5701 12.8077
      vertex 5 21.5701 12.8077
    endloop
  endfacet
  facet normal 0 0.615956 0.787781
    outer loop
      vertex 5 22.5737 11.5814
      vertex 15.1149 22.8873 11.3362
      vertex 5 22.8873 11.3362
    endloop
  endfacet
  facet normal 0 0.615956 0.787781
    outer loop
      vertex 15.1149 22.8873 11.3362
      vertex 5 22.5737 11.5814
      vertex 15.4419 22.5737 11.5814
    endloop
  endfacet
  facet normal 0 0.387877 0.921711
    outer loop
      vertex 5 23.5732 10.9334
      vertex 14.372 23.9401 10.779
      vertex 5 23.9401 10.779
    endloop
  endfacet
  facet normal 0 0.387877 0.921711
    outer loop
      vertex 14.372 23.9401 10.779
      vertex 5 23.5732 10.9334
      vertex 14.5778 23.5732 10.9334
    endloop
  endfacet
  facet normal 0 -0.999756 0.0221052
    outer loop
      vertex 19.6021 29.9901 14.7015
      vertex 5 29.9989 15.0995
      vertex 5 29.9901 14.7015
    endloop
  endfacet
  facet normal 0 -0.999756 0.0221052
    outer loop
      vertex 5 29.9989 15.0995
      vertex 19.6021 29.9901 14.7015
      vertex 20.1327 29.9989 15.0995
    endloop
  endfacet
  facet normal 0 0.999756 0.0221052
    outer loop
      vertex 19.6021 21.0099 14.7015
      vertex 5 21.0011 15.0995
      vertex 20.1327 21.0011 15.0995
    endloop
  endfacet
  facet normal 0 0.999756 0.0221052
    outer loop
      vertex 5 21.0011 15.0995
      vertex 19.6021 21.0099 14.7015
      vertex 5 21.0099 14.7015
    endloop
  endfacet
  facet normal 0 0.219536 0.975604
    outer loop
      vertex 5 24.3193 10.6577
      vertex 14.0937 24.7077 10.5703
      vertex 5 24.7077 10.5703
    endloop
  endfacet
  facet normal 0 0.219536 0.975604
    outer loop
      vertex 14.0937 24.7077 10.5703
      vertex 5 24.3193 10.6577
      vertex 14.2102 24.3193 10.6577
    endloop
  endfacet
  facet normal 0 -0.304675 0.952456
    outer loop
      vertex 5 27.0599 10.779
      vertex 14.2102 26.6807 10.6577
      vertex 14.372 27.0599 10.779
    endloop
  endfacet
  facet normal 0 -0.304675 0.952456
    outer loop
      vertex 14.2102 26.6807 10.6577
      vertex 5 27.0599 10.779
      vertex 5 26.6807 10.6577
    endloop
  endfacet
  facet normal 0 -0.801264 0.598311
    outer loop
      vertex 16.2001 28.9825 12.15
      vertex 5 29.2207 12.469
      vertex 5 28.9825 12.15
    endloop
  endfacet
  facet normal 0 -0.801264 0.598311
    outer loop
      vertex 5 29.2207 12.469
      vertex 16.2001 28.9825 12.15
      vertex 16.6253 29.2207 12.469
    endloop
  endfacet
  facet normal -0 -0.826679 -0.562674
    outer loop
      vertex 23.152 29.3291 17.364
      vertex 5 29.1051 17.6931
      vertex 5 29.3291 17.364
    endloop
  endfacet
  facet normal 0 -0.826679 -0.562674
    outer loop
      vertex 5 29.1051 17.6931
      vertex 23.152 29.3291 17.364
      vertex 23.5908 29.1051 17.6931
    endloop
  endfacet
  facet normal 0 -0.580573 -0.814208
    outer loop
      vertex 5 27.9481 18.7758
      vertex 24.7262 28.2722 18.5447
      vertex 25.0344 27.9481 18.7758
    endloop
  endfacet
  facet normal -0 -0.580573 -0.814208
    outer loop
      vertex 24.7262 28.2722 18.5447
      vertex 5 27.9481 18.7758
      vertex 5 28.2722 18.5447
    endloop
  endfacet
  facet normal -0 -0.912887 -0.408212
    outer loop
      vertex 22.2038 29.6855 16.6529
      vertex 5 29.523 17.0163
      vertex 5 29.6855 16.6529
    endloop
  endfacet
  facet normal 0 -0.912887 -0.408212
    outer loop
      vertex 5 29.523 17.0163
      vertex 22.2038 29.6855 16.6529
      vertex 22.6884 29.523 17.0163
    endloop
  endfacet
  facet normal 0 0.945445 -0.325782
    outer loop
      vertex 21.702 21.1848 16.2765
      vertex 5 21.3145 16.6529
      vertex 22.2038 21.3145 16.6529
    endloop
  endfacet
  facet normal 0 0.945445 -0.325782
    outer loop
      vertex 5 21.3145 16.6529
      vertex 21.702 21.1848 16.2765
      vertex 5 21.1848 16.2765
    endloop
  endfacet
  facet normal 0 -0.650357 -0.759629
    outer loop
      vertex 5 28.2722 18.5447
      vertex 24.3811 28.5746 18.2858
      vertex 24.7262 28.2722 18.5447
    endloop
  endfacet
  facet normal -0 -0.650357 -0.759629
    outer loop
      vertex 24.3811 28.5746 18.2858
      vertex 5 28.2722 18.5447
      vertex 5 28.5746 18.2858
    endloop
  endfacet
  facet normal 0 -0.467692 0.883892
    outer loop
      vertex 5 27.7787 11.1196
      vertex 14.5778 27.4268 10.9334
      vertex 14.8261 27.7787 11.1196
    endloop
  endfacet
  facet normal 0 -0.467692 0.883892
    outer loop
      vertex 14.5778 27.4268 10.9334
      vertex 5 27.7787 11.1196
      vertex 5 27.4268 10.9334
    endloop
  endfacet
  facet normal 0 0.970555 -0.24088
    outer loop
      vertex 21.1868 21.0889 15.8901
      vertex 5 21.1848 16.2765
      vertex 21.702 21.1848 16.2765
    endloop
  endfacet
  facet normal 0 0.970555 -0.24088
    outer loop
      vertex 5 21.1848 16.2765
      vertex 21.1868 21.0889 15.8901
      vertex 5 21.0889 15.8901
    endloop
  endfacet
  facet normal 0 0.826679 -0.562674
    outer loop
      vertex 23.152 21.6709 17.364
      vertex 5 21.8949 17.6931
      vertex 23.5908 21.8949 17.6931
    endloop
  endfacet
  facet normal 0 0.826679 -0.562674
    outer loop
      vertex 5 21.8949 17.6931
      vertex 23.152 21.6709 17.364
      vertex 5 21.6709 17.364
    endloop
  endfacet
  facet normal 0 -0.506383 -0.862308
    outer loop
      vertex 5 27.6048 18.9774
      vertex 25.0344 27.9481 18.7758
      vertex 25.3032 27.6048 18.9774
    endloop
  endfacet
  facet normal -0 -0.506383 -0.862308
    outer loop
      vertex 25.0344 27.9481 18.7758
      vertex 5 27.6048 18.9774
      vertex 5 27.9481 18.7758
    endloop
  endfacet
  facet normal -0 -0.71485 -0.699277
    outer loop
      vertex 24.0016 28.853 18.0012
      vertex 5 28.5746 18.2858
      vertex 5 28.853 18.0012
    endloop
  endfacet
  facet normal 0 -0.71485 -0.699277
    outer loop
      vertex 5 28.5746 18.2858
      vertex 24.0016 28.853 18.0012
      vertex 24.3811 28.5746 18.2858
    endloop
  endfacet
  facet normal 0 -0.615956 0.787781
    outer loop
      vertex 5 28.4263 11.5814
      vertex 15.1149 28.1127 11.3362
      vertex 15.4419 28.4263 11.5814
    endloop
  endfacet
  facet normal 0 -0.615956 0.787781
    outer loop
      vertex 15.1149 28.1127 11.3362
      vertex 5 28.4263 11.5814
      vertex 5 28.1127 11.3362
    endloop
  endfacet
  facet normal 0 -0.683231 0.730203
    outer loop
      vertex 5 28.717 11.8534
      vertex 15.4419 28.4263 11.5814
      vertex 15.8045 28.717 11.8534
    endloop
  endfacet
  facet normal 0 -0.683231 0.730203
    outer loop
      vertex 15.4419 28.4263 11.5814
      vertex 5 28.717 11.8534
      vertex 5 28.4263 11.5814
    endloop
  endfacet
  facet normal 0 0.650233 -0.759735
    outer loop
      vertex 5 22.7278 18.5447
      vertex 24.3811 22.4253 18.2858
      vertex 5 22.4253 18.2858
    endloop
  endfacet
  facet normal 0 0.650233 -0.759735
    outer loop
      vertex 24.3811 22.4253 18.2858
      vertex 5 22.7278 18.5447
      vertex 24.7262 22.7278 18.5447
    endloop
  endfacet
  facet normal 0 0.506383 -0.862308
    outer loop
      vertex 5 23.3952 18.9774
      vertex 25.0344 23.0519 18.7758
      vertex 5 23.0519 18.7758
    endloop
  endfacet
  facet normal 0 0.506383 -0.862308
    outer loop
      vertex 25.0344 23.0519 18.7758
      vertex 5 23.3952 18.9774
      vertex 25.3032 23.3952 18.9774
    endloop
  endfacet
  facet normal 0 0.467692 0.883892
    outer loop
      vertex 5 23.2213 11.1196
      vertex 14.5778 23.5732 10.9334
      vertex 5 23.5732 10.9334
    endloop
  endfacet
  facet normal 0 0.467692 0.883892
    outer loop
      vertex 14.5778 23.5732 10.9334
      vertex 5 23.2213 11.1196
      vertex 14.8261 23.2213 11.1196
    endloop
  endfacet
  facet normal 0 0.428227 -0.903671
    outer loop
      vertex 5 23.755 19.1479
      vertex 25.3032 23.3952 18.9774
      vertex 5 23.3952 18.9774
    endloop
  endfacet
  facet normal 0 0.428227 -0.903671
    outer loop
      vertex 25.3032 23.3952 18.9774
      vertex 5 23.755 19.1479
      vertex 25.5305 23.755 19.1479
    endloop
  endfacet
  facet normal -0 -0.773935 -0.633265
    outer loop
      vertex 23.5908 29.1051 17.6931
      vertex 5 28.853 18.0012
      vertex 5 29.1051 17.6931
    endloop
  endfacet
  facet normal 0 -0.773935 -0.633265
    outer loop
      vertex 5 28.853 18.0012
      vertex 23.5908 29.1051 17.6931
      vertex 24.0016 28.853 18.0012
    endloop
  endfacet
  facet normal 0 0.74509 0.666964
    outer loop
      vertex 15.8045 22.283 11.8534
      vertex 5 22.0175 12.15
      vertex 16.2001 22.0175 12.15
    endloop
  endfacet
  facet normal 0 0.74509 0.666964
    outer loop
      vertex 5 22.0175 12.15
      vertex 15.8045 22.283 11.8534
      vertex 5 22.283 11.8534
    endloop
  endfacet
  facet normal 0 0.912887 -0.408212
    outer loop
      vertex 22.2038 21.3145 16.6529
      vertex 5 21.477 17.0163
      vertex 22.6884 21.477 17.0163
    endloop
  endfacet
  facet normal 0 0.912887 -0.408212
    outer loop
      vertex 5 21.477 17.0163
      vertex 22.2038 21.3145 16.6529
      vertex 5 21.3145 16.6529
    endloop
  endfacet
  facet normal 0 -0.993871 0.110542
    outer loop
      vertex 19.0745 29.9461 14.3059
      vertex 5 29.9901 14.7015
      vertex 5 29.9461 14.3059
    endloop
  endfacet
  facet normal 0 -0.993871 0.110542
    outer loop
      vertex 5 29.9901 14.7015
      vertex 19.0745 29.9461 14.3059
      vertex 19.6021 29.9901 14.7015
    endloop
  endfacet
  facet normal 0 0.088429 -0.996082
    outer loop
      vertex 5 25.3009 19.4956
      vertex 25.9472 24.9044 19.4604
      vertex 5 24.9044 19.4604
    endloop
  endfacet
  facet normal 0 0.088429 -0.996082
    outer loop
      vertex 25.9472 24.9044 19.4604
      vertex 5 25.3009 19.4956
      vertex 25.9941 25.3009 19.4956
    endloop
  endfacet
  facet normal 0 0 -1
    outer loop
      vertex 5 25.3009 19.4956
      vertex 25.9941 25.6991 19.4956
      vertex 25.9941 25.3009 19.4956
    endloop
  endfacet
  facet normal -0 0 -1
    outer loop
      vertex 25.9941 25.6991 19.4956
      vertex 5 25.3009 19.4956
      vertex 5 25.6991 19.4956
    endloop
  endfacet
  facet normal 0 -0.930045 0.367447
    outer loop
      vertex 17.5515 29.6082 13.1636
      vertex 5 29.7545 13.5339
      vertex 5 29.6082 13.1636
    endloop
  endfacet
  facet normal 0 -0.930045 0.367447
    outer loop
      vertex 5 29.7545 13.5339
      vertex 17.5515 29.6082 13.1636
      vertex 18.0452 29.7545 13.5339
    endloop
  endfacet
  facet normal 0 -0.958932 0.283635
    outer loop
      vertex 18.0452 29.7545 13.5339
      vertex 5 29.8674 13.9156
      vertex 5 29.7545 13.5339
    endloop
  endfacet
  facet normal 0 -0.958932 0.283635
    outer loop
      vertex 5 29.8674 13.9156
      vertex 18.0452 29.7545 13.5339
      vertex 18.5542 29.8674 13.9156
    endloop
  endfacet
  facet normal 0 -0.262288 -0.96499
    outer loop
      vertex 5 26.4875 19.3903
      vertex 25.7145 26.8716 19.2859
      vertex 25.8538 26.4875 19.3903
    endloop
  endfacet
  facet normal -0 -0.262288 -0.96499
    outer loop
      vertex 25.7145 26.8716 19.2859
      vertex 5 26.4875 19.3903
      vertex 5 26.8716 19.2859
    endloop
  endfacet
  facet normal 0 0.9978 -0.0663023
    outer loop
      vertex 20.1327 21.0011 15.0995
      vertex 5 21.0275 15.4968
      vertex 20.6624 21.0275 15.4968
    endloop
  endfacet
  facet normal 0 0.9978 -0.0663023
    outer loop
      vertex 5 21.0275 15.4968
      vertex 20.1327 21.0011 15.0995
      vertex 5 21.0011 15.0995
    endloop
  endfacet
  facet normal 1 0 0
    outer loop
      vertex 5 29.9989 15.0995
      vertex 5 27.5291 15.2917
      vertex 5 27.5477 14.9025
    endloop
  endfacet
  facet normal 1 0 0
    outer loop
      vertex 5 27.9481 18.7758
      vertex 5 27.4373 15.6705
      vertex 5 27.5291 15.2917
    endloop
  endfacet
  facet normal 1 0 0
    outer loop
      vertex 5 27.9481 18.7758
      vertex 5 27.2754 16.025
      vertex 5 27.4373 15.6705
    endloop
  endfacet
  facet normal 1 0 0
    outer loop
      vertex 5 26.4394 16.8221
      vertex 5 27.6048 18.9774
      vertex 5 27.245 19.1479
    endloop
  endfacet
  facet normal 1 0 0
    outer loop
      vertex 5 27.9481 18.7758
      vertex 5 27.0493 16.3425
      vertex 5 27.2754 16.025
    endloop
  endfacet
  facet normal 1 0 0
    outer loop
      vertex 5 26.0776 16.967
      vertex 5 27.245 19.1479
      vertex 5 26.8716 19.2859
    endloop
  endfacet
  facet normal 1 0 0
    outer loop
      vertex 5 27.9481 18.7758
      vertex 5 26.7672 16.6114
      vertex 5 27.0493 16.3425
    endloop
  endfacet
  facet normal 1 0 0
    outer loop
      vertex 5 26.0776 16.967
      vertex 5 26.8716 19.2859
      vertex 5 26.4875 19.3903
    endloop
  endfacet
  facet normal 1 0 0
    outer loop
      vertex 5 27.9481 18.7758
      vertex 5 26.4394 16.8221
      vertex 5 26.7672 16.6114
    endloop
  endfacet
  facet normal 1 0 0
    outer loop
      vertex 5 25.6949 17.0407
      vertex 5 26.4875 19.3903
      vertex 5 26.0956 19.4604
    endloop
  endfacet
  facet normal 1 0 0
    outer loop
      vertex 5 27.245 19.1479
      vertex 5 26.0776 16.967
      vertex 5 26.4394 16.8221
    endloop
  endfacet
  facet normal 1 0 0
    outer loop
      vertex 5 25.6949 17.0407
      vertex 5 26.0956 19.4604
      vertex 5 25.6991 19.4956
    endloop
  endfacet
  facet normal 1 0 0
    outer loop
      vertex 5 26.4875 19.3903
      vertex 5 25.6949 17.0407
      vertex 5 26.0776 16.967
    endloop
  endfacet
  facet normal 1 0 0
    outer loop
      vertex 5 25.6991 19.4956
      vertex 5 25.3051 17.0407
      vertex 5 25.6949 17.0407
    endloop
  endfacet
  facet normal 1 -0 0
    outer loop
      vertex 5 25.3009 19.4956
      vertex 5 25.3051 17.0407
      vertex 5 25.6991 19.4956
    endloop
  endfacet
  facet normal 1 -0 0
    outer loop
      vertex 5 24.9044 19.4604
      vertex 5 25.3051 17.0407
      vertex 5 25.3009 19.4956
    endloop
  endfacet
  facet normal 1 -0 0
    outer loop
      vertex 5 24.5125 19.3903
      vertex 5 25.3051 17.0407
      vertex 5 24.9044 19.4604
    endloop
  endfacet
  facet normal 1 0 0
    outer loop
      vertex 5 25.3051 17.0407
      vertex 5 24.5125 19.3903
      vertex 5 24.9224 16.967
    endloop
  endfacet
  facet normal 1 -0 0
    outer loop
      vertex 5 24.1284 19.2859
      vertex 5 24.9224 16.967
      vertex 5 24.5125 19.3903
    endloop
  endfacet
  facet normal 1 -0 0
    outer loop
      vertex 5 23.755 19.1479
      vertex 5 24.9224 16.967
      vertex 5 24.1284 19.2859
    endloop
  endfacet
  facet normal 1 0 0
    outer loop
      vertex 5 24.9224 16.967
      vertex 5 23.755 19.1479
      vertex 5 24.5606 16.8221
    endloop
  endfacet
  facet normal 1 -0 0
    outer loop
      vertex 5 23.3952 18.9774
      vertex 5 24.5606 16.8221
      vertex 5 23.755 19.1479
    endloop
  endfacet
  facet normal 1 -0 0
    outer loop
      vertex 5 23.0519 18.7758
      vertex 5 24.5606 16.8221
      vertex 5 23.3952 18.9774
    endloop
  endfacet
  facet normal 1 0 0
    outer loop
      vertex 5 24.5606 16.8221
      vertex 5 23.0519 18.7758
      vertex 5 24.2328 16.6114
    endloop
  endfacet
  facet normal 1 -0 0
    outer loop
      vertex 5 22.7278 18.5447
      vertex 5 24.2328 16.6114
      vertex 5 23.0519 18.7758
    endloop
  endfacet
  facet normal 1 -0 0
    outer loop
      vertex 5 22.4253 18.2858
      vertex 5 24.2328 16.6114
      vertex 5 22.7278 18.5447
    endloop
  endfacet
  facet normal 1 -0 0
    outer loop
      vertex 5 22.147 18.0012
      vertex 5 23.9507 16.3425
      vertex 5 22.4253 18.2858
    endloop
  endfacet
  facet normal 1 0 0
    outer loop
      vertex 5 24.2328 16.6114
      vertex 5 22.4253 18.2858
      vertex 5 23.9507 16.3425
    endloop
  endfacet
  facet normal 1 -0 0
    outer loop
      vertex 5 27.5291 15.2917
      vertex 5 29.9989 15.0995
      vertex 5 29.9725 15.4968
    endloop
  endfacet
  facet normal 1 0 0
    outer loop
      vertex 5 29.9989 15.0995
      vertex 5 27.5477 14.9025
      vertex 5 29.9901 14.7015
    endloop
  endfacet
  facet normal 1 0 0
    outer loop
      vertex 5 27.5291 15.2917
      vertex 5 29.9725 15.4968
      vertex 5 29.9111 15.8901
    endloop
  endfacet
  facet normal 1 0 0
    outer loop
      vertex 5 29.9901 14.7015
      vertex 5 27.5477 14.9025
      vertex 5 29.9461 14.3059
    endloop
  endfacet
  facet normal 1 0 0
    outer loop
      vertex 5 27.5291 15.2917
      vertex 5 29.9111 15.8901
      vertex 5 29.8152 16.2765
    endloop
  endfacet
  facet normal 1 -0 0
    outer loop
      vertex 5 27.4922 14.5167
      vertex 5 29.9461 14.3059
      vertex 5 27.5477 14.9025
    endloop
  endfacet
  facet normal 1 0 0
    outer loop
      vertex 5 27.5291 15.2917
      vertex 5 29.8152 16.2765
      vertex 5 29.6855 16.6529
    endloop
  endfacet
  facet normal 1 0 0
    outer loop
      vertex 5 29.9461 14.3059
      vertex 5 27.4922 14.5167
      vertex 5 29.8674 13.9156
    endloop
  endfacet
  facet normal 1 0 0
    outer loop
      vertex 5 27.5291 15.2917
      vertex 5 29.6855 16.6529
      vertex 5 29.523 17.0163
    endloop
  endfacet
  facet normal 1 0 0
    outer loop
      vertex 5 29.8674 13.9156
      vertex 5 27.4922 14.5167
      vertex 5 29.7545 13.5339
    endloop
  endfacet
  facet normal 1 0 0
    outer loop
      vertex 5 27.5291 15.2917
      vertex 5 29.523 17.0163
      vertex 5 29.3291 17.364
    endloop
  endfacet
  facet normal 1 -0 0
    outer loop
      vertex 5 27.3647 14.1484
      vertex 5 29.7545 13.5339
      vertex 5 27.4922 14.5167
    endloop
  endfacet
  facet normal 1 0 0
    outer loop
      vertex 5 27.5291 15.2917
      vertex 5 29.3291 17.364
      vertex 5 29.1051 17.6931
    endloop
  endfacet
  facet normal 1 0 0
    outer loop
      vertex 5 29.7545 13.5339
      vertex 5 27.3647 14.1484
      vertex 5 29.6082 13.1636
    endloop
  endfacet
  facet normal 1 0 0
    outer loop
      vertex 5 27.5291 15.2917
      vertex 5 29.1051 17.6931
      vertex 5 28.853 18.0012
    endloop
  endfacet
  facet normal 1 0 0
    outer loop
      vertex 5 29.6082 13.1636
      vertex 5 27.3647 14.1484
      vertex 5 29.4299 12.8077
    endloop
  endfacet
  facet normal 1 0 0
    outer loop
      vertex 5 27.5291 15.2917
      vertex 5 28.853 18.0012
      vertex 5 28.5746 18.2858
    endloop
  endfacet
  facet normal 1 -0 0
    outer loop
      vertex 5 27.1699 13.8109
      vertex 5 29.4299 12.8077
      vertex 5 27.3647 14.1484
    endloop
  endfacet
  facet normal 1 0 0
    outer loop
      vertex 5 27.5291 15.2917
      vertex 5 28.5746 18.2858
      vertex 5 28.2722 18.5447
    endloop
  endfacet
  facet normal 1 0 0
    outer loop
      vertex 5 29.4299 12.8077
      vertex 5 27.1699 13.8109
      vertex 5 29.2207 12.469
    endloop
  endfacet
  facet normal 1 0 0
    outer loop
      vertex 5 27.5291 15.2917
      vertex 5 28.2722 18.5447
      vertex 5 27.9481 18.7758
    endloop
  endfacet
  facet normal 1 0 0
    outer loop
      vertex 5 29.2207 12.469
      vertex 5 27.1699 13.8109
      vertex 5 28.9825 12.15
    endloop
  endfacet
  facet normal 1 0 0
    outer loop
      vertex 5 26.4394 16.8221
      vertex 5 27.9481 18.7758
      vertex 5 27.6048 18.9774
    endloop
  endfacet
  facet normal 1 -0 0
    outer loop
      vertex 5 26.9147 13.5163
      vertex 5 28.9825 12.15
      vertex 5 27.1699 13.8109
    endloop
  endfacet
  facet normal 1 0 0
    outer loop
      vertex 5 28.9825 12.15
      vertex 5 26.9147 13.5163
      vertex 5 28.717 11.8534
    endloop
  endfacet
  facet normal 1 0 0
    outer loop
      vertex 5 28.717 11.8534
      vertex 5 26.9147 13.5163
      vertex 5 28.4263 11.5814
    endloop
  endfacet
  facet normal 1 0 0
    outer loop
      vertex 5 28.4263 11.5814
      vertex 5 26.9147 13.5163
      vertex 5 28.1127 11.3362
    endloop
  endfacet
  facet normal 1 -0 0
    outer loop
      vertex 5 26.6083 13.2754
      vertex 5 28.1127 11.3362
      vertex 5 26.9147 13.5163
    endloop
  endfacet
  facet normal 1 0 0
    outer loop
      vertex 5 28.1127 11.3362
      vertex 5 26.6083 13.2754
      vertex 5 27.7787 11.1196
    endloop
  endfacet
  facet normal 1 0 0
    outer loop
      vertex 5 27.7787 11.1196
      vertex 5 26.6083 13.2754
      vertex 5 27.4268 10.9334
    endloop
  endfacet
  facet normal 1 -0 0
    outer loop
      vertex 5 26.2619 13.0968
      vertex 5 27.4268 10.9334
      vertex 5 26.6083 13.2754
    endloop
  endfacet
  facet normal 1 0 0
    outer loop
      vertex 5 27.4268 10.9334
      vertex 5 26.2619 13.0968
      vertex 5 27.0599 10.779
    endloop
  endfacet
  facet normal 1 0 0
    outer loop
      vertex 5 27.0599 10.779
      vertex 5 26.2619 13.0968
      vertex 5 26.6807 10.6577
    endloop
  endfacet
  facet normal 1 -0 0
    outer loop
      vertex 5 25.888 12.987
      vertex 5 26.6807 10.6577
      vertex 5 26.2619 13.0968
    endloop
  endfacet
  facet normal 1 0 0
    outer loop
      vertex 5 26.6807 10.6577
      vertex 5 25.888 12.987
      vertex 5 26.2923 10.5703
    endloop
  endfacet
  facet normal 1 0 0
    outer loop
      vertex 5 26.2923 10.5703
      vertex 5 25.888 12.987
      vertex 5 25.8977 10.5176
    endloop
  endfacet
  facet normal 1 -0 0
    outer loop
      vertex 5 25.5 12.95
      vertex 5 25.8977 10.5176
      vertex 5 25.888 12.987
    endloop
  endfacet
  facet normal 1 0 0
    outer loop
      vertex 5 25.5 12.95
      vertex 5 25.5 10.5
      vertex 5 25.8977 10.5176
    endloop
  endfacet
  facet normal 1 0 0
    outer loop
      vertex 5 25.1023 10.5176
      vertex 5 25.5 12.95
      vertex 5 25.112 12.987
    endloop
  endfacet
  facet normal 1 0 0
    outer loop
      vertex 5 25.5 12.95
      vertex 5 25.1023 10.5176
      vertex 5 25.5 10.5
    endloop
  endfacet
  facet normal 1 0 0
    outer loop
      vertex 5 24.3193 10.6577
      vertex 5 25.112 12.987
      vertex 5 24.7381 13.0968
    endloop
  endfacet
  facet normal 1 0 0
    outer loop
      vertex 5 25.112 12.987
      vertex 5 24.7077 10.5703
      vertex 5 25.1023 10.5176
    endloop
  endfacet
  facet normal 1 0 0
    outer loop
      vertex 5 23.5732 10.9334
      vertex 5 24.7381 13.0968
      vertex 5 24.3917 13.2754
    endloop
  endfacet
  facet normal 1 0 0
    outer loop
      vertex 5 25.112 12.987
      vertex 5 24.3193 10.6577
      vertex 5 24.7077 10.5703
    endloop
  endfacet
  facet normal 1 0 0
    outer loop
      vertex 5 22.8873 11.3362
      vertex 5 24.3917 13.2754
      vertex 5 24.0853 13.5163
    endloop
  endfacet
  facet normal 1 0 0
    outer loop
      vertex 5 24.7381 13.0968
      vertex 5 23.9401 10.779
      vertex 5 24.3193 10.6577
    endloop
  endfacet
  facet normal 1 0 0
    outer loop
      vertex 5 22.0175 12.15
      vertex 5 24.0853 13.5163
      vertex 5 23.8301 13.8109
    endloop
  endfacet
  facet normal 1 0 0
    outer loop
      vertex 5 21.5701 12.8077
      vertex 5 23.8301 13.8109
      vertex 5 23.6353 14.1484
    endloop
  endfacet
  facet normal 1 0 0
    outer loop
      vertex 5 24.7381 13.0968
      vertex 5 23.5732 10.9334
      vertex 5 23.9401 10.779
    endloop
  endfacet
  facet normal 1 0 0
    outer loop
      vertex 5 21.2455 13.5339
      vertex 5 23.6353 14.1484
      vertex 5 23.5078 14.5167
    endloop
  endfacet
  facet normal 1 0 0
    outer loop
      vertex 5 21.0539 14.3059
      vertex 5 23.5078 14.5167
      vertex 5 23.4523 14.9025
    endloop
  endfacet
  facet normal 1 0 0
    outer loop
      vertex 5 24.3917 13.2754
      vertex 5 23.2213 11.1196
      vertex 5 23.5732 10.9334
    endloop
  endfacet
  facet normal 1 -0 0
    outer loop
      vertex 5 21.8949 17.6931
      vertex 5 23.9507 16.3425
      vertex 5 22.147 18.0012
    endloop
  endfacet
  facet normal 1 0 0
    outer loop
      vertex 5 23.9507 16.3425
      vertex 5 21.8949 17.6931
      vertex 5 23.7246 16.025
    endloop
  endfacet
  facet normal 1 0 0
    outer loop
      vertex 5 24.3917 13.2754
      vertex 5 22.8873 11.3362
      vertex 5 23.2213 11.1196
    endloop
  endfacet
  facet normal 1 -0 0
    outer loop
      vertex 5 21.6709 17.364
      vertex 5 23.7246 16.025
      vertex 5 21.8949 17.6931
    endloop
  endfacet
  facet normal 1 0 0
    outer loop
      vertex 5 24.0853 13.5163
      vertex 5 22.5737 11.5814
      vertex 5 22.8873 11.3362
    endloop
  endfacet
  facet normal 1 -0 0
    outer loop
      vertex 5 21.477 17.0163
      vertex 5 23.7246 16.025
      vertex 5 21.6709 17.364
    endloop
  endfacet
  facet normal 1 0 0
    outer loop
      vertex 5 24.0853 13.5163
      vertex 5 22.283 11.8534
      vertex 5 22.5737 11.5814
    endloop
  endfacet
  facet normal 1 0 0
    outer loop
      vertex 5 23.7246 16.025
      vertex 5 21.477 17.0163
      vertex 5 23.5627 15.6705
    endloop
  endfacet
  facet normal 1 0 0
    outer loop
      vertex 5 24.0853 13.5163
      vertex 5 22.0175 12.15
      vertex 5 22.283 11.8534
    endloop
  endfacet
  facet normal 1 -0 0
    outer loop
      vertex 5 21.3145 16.6529
      vertex 5 23.5627 15.6705
      vertex 5 21.477 17.0163
    endloop
  endfacet
  facet normal 1 0 0
    outer loop
      vertex 5 23.8301 13.8109
      vertex 5 21.7793 12.469
      vertex 5 22.0175 12.15
    endloop
  endfacet
  facet normal 1 -0 0
    outer loop
      vertex 5 21.1848 16.2765
      vertex 5 23.5627 15.6705
      vertex 5 21.3145 16.6529
    endloop
  endfacet
  facet normal 1 0 0
    outer loop
      vertex 5 23.8301 13.8109
      vertex 5 21.5701 12.8077
      vertex 5 21.7793 12.469
    endloop
  endfacet
  facet normal 1 -0 0
    outer loop
      vertex 5 21.0889 15.8901
      vertex 5 23.5627 15.6705
      vertex 5 21.1848 16.2765
    endloop
  endfacet
  facet normal 1 0 0
    outer loop
      vertex 5 23.6353 14.1484
      vertex 5 21.3918 13.1636
      vertex 5 21.5701 12.8077
    endloop
  endfacet
  facet normal 1 0 0
    outer loop
      vertex 5 23.5627 15.6705
      vertex 5 21.0889 15.8901
      vertex 5 23.4709 15.2917
    endloop
  endfacet
  facet normal 1 0 0
    outer loop
      vertex 5 23.6353 14.1484
      vertex 5 21.2455 13.5339
      vertex 5 21.3918 13.1636
    endloop
  endfacet
  facet normal 1 -0 0
    outer loop
      vertex 5 21.0275 15.4968
      vertex 5 23.4709 15.2917
      vertex 5 21.0889 15.8901
    endloop
  endfacet
  facet normal 1 0 0
    outer loop
      vertex 5 23.5078 14.5167
      vertex 5 21.1326 13.9156
      vertex 5 21.2455 13.5339
    endloop
  endfacet
  facet normal 1 0 0
    outer loop
      vertex 5 21.0011 15.0995
      vertex 5 23.4709 15.2917
      vertex 5 21.0275 15.4968
    endloop
  endfacet
  facet normal 1 0 0
    outer loop
      vertex 5 23.5078 14.5167
      vertex 5 21.0539 14.3059
      vertex 5 21.1326 13.9156
    endloop
  endfacet
  facet normal 1 0 0
    outer loop
      vertex 5 23.4709 15.2917
      vertex 5 21.0011 15.0995
      vertex 5 23.4523 14.9025
    endloop
  endfacet
  facet normal 1 0 0
    outer loop
      vertex 5 23.4523 14.9025
      vertex 5 21.0099 14.7015
      vertex 5 21.0539 14.3059
    endloop
  endfacet
  facet normal 1 0 0
    outer loop
      vertex 5 23.4523 14.9025
      vertex 5 21.0011 15.0995
      vertex 5 21.0099 14.7015
    endloop
  endfacet
  facet normal 0 0 -1
    outer loop
      vertex -25.5 51 0
      vertex 0 55 0
      vertex 0 51 0
    endloop
  endfacet
  facet normal -0 0 -1
    outer loop
      vertex 0 55 0
      vertex -25.5 51 0
      vertex -25.5 55 0
    endloop
  endfacet
  facet normal -1 0 0
    outer loop
      vertex -25.5 51 0
      vertex -25.5 55 30
      vertex -25.5 55 0
    endloop
  endfacet
  facet normal -1 -0 0
    outer loop
      vertex -25.5 55 30
      vertex -25.5 51 0
      vertex -25.5 51 30
    endloop
  endfacet
  facet normal 0 -1 0
    outer loop
      vertex -25.5 51 0
      vertex 0 51 30
      vertex -25.5 51 30
    endloop
  endfacet
  facet normal 0 -1 -0
    outer loop
      vertex 0 51 30
      vertex -25.5 51 0
      vertex 0 51 0
    endloop
  endfacet
endsolid OpenSCAD_Model
